<svg width="24" height="24" viewBox="0 0 24 24" fill="none" xmlns="http://www.w3.org/2000/svg">
  <path
    d="M10.8477 4.33105C11.4769 3.67793 12.5231 3.67793 13.1523 4.33105L14.7432 5.98242C14.8096 6.05137 14.8988 6.09457 14.9941 6.10352L17.2773 6.31738C18.1803 6.40215 18.832 7.22001 18.7139 8.11914L18.415 10.3936C18.4027 10.4882 18.4244 10.5841 18.4766 10.6641L19.7324 12.583C20.2293 13.3419 19.9966 14.3619 19.2197 14.8301L17.2559 16.0137C17.1739 16.0631 17.1119 16.1405 17.082 16.2314L16.3652 18.4092C16.0817 19.2708 15.1395 19.7247 14.2891 19.4092L12.1387 18.6113C12.0492 18.5783 11.9508 18.5783 11.8613 18.6113L9.71094 19.4092C8.86052 19.7247 7.91833 19.2708 7.63477 18.4092L6.91797 16.2314C6.88805 16.1405 6.82609 16.0631 6.74414 16.0137L4.78027 14.8301C4.00337 14.3619 3.77075 13.3419 4.26758 12.583L5.52344 10.6641C5.57564 10.5841 5.59733 10.4882 5.58496 10.3936L5.28613 8.11914C5.168 7.22 5.81973 6.40215 6.72266 6.31738L9.00586 6.10352C9.10118 6.09457 9.19041 6.05137 9.25684 5.98242L10.8477 4.33105Z"
    stroke="#181818"
    stroke-width="1.2"
    stroke-linecap="round"
    stroke-linejoin="round"
  />
  <path
    d="M12 9.40039C13.4359 9.40039 14.5996 10.5641 14.5996 12C14.5996 13.4359 13.4359 14.5996 12 14.5996C10.5641 14.5996 9.40039 13.4359 9.40039 12C9.40039 10.5641 10.5641 9.40039 12 9.40039Z"
    stroke="#181818"
    stroke-width="1.2"
    stroke-linejoin="round"
  />
</svg>
