<svg width="24" height="24" viewBox="0 0 24 24" fill="none" xmlns="http://www.w3.org/2000/svg">
  <path
    d="M12 4.40039C13.3792 4.40039 15.1014 4.52731 16.542 4.66211C18.5884 4.8536 20.2351 6.43593 20.4414 8.49805C20.5294 9.37882 20.5996 10.3304 20.5996 11.1338C20.5996 11.9371 20.5294 12.888 20.4414 13.7686C20.2351 15.8308 18.5884 17.413 16.542 17.6045C15.8012 17.6738 14.9889 17.7402 14.1885 17.7891C14.2005 17.7879 14.1618 17.795 14.0537 17.8535C13.9375 17.9164 13.7901 18.0124 13.6133 18.1387C13.2597 18.3913 12.8421 18.7279 12.4092 19.0791C11.985 19.4232 11.5435 19.7819 11.167 20.0537C10.9791 20.1894 10.793 20.315 10.6221 20.4082C10.4788 20.4863 10.2467 20.5996 10 20.5996C9.68732 20.5996 9.43086 20.4469 9.27539 20.21C9.1471 20.0144 9.10627 19.7914 9.08887 19.6289C9.05374 19.3006 9.08924 18.884 9.1123 18.5605C9.13772 18.204 9.14926 17.9302 9.12305 17.7422C8.552 17.7008 7.98683 17.654 7.45801 17.6045C5.41158 17.413 3.76488 15.8307 3.55859 13.7686C3.47058 12.888 3.40042 11.9371 3.40039 11.1338C3.40039 10.3304 3.47057 9.37882 3.55859 8.49805C3.76491 6.43593 5.41156 4.8536 7.45801 4.66211C8.89862 4.52731 10.6208 4.40039 12 4.40039Z"
    stroke="#181818"
    stroke-width="1.2"
  />
  <path d="M12 8V14" stroke="#181818" stroke-width="1.2" stroke-linecap="round" />
  <path d="M15 11H9" stroke="#181818" stroke-width="1.2" stroke-linecap="round" />
</svg>
